
<svg width="206px" height="207px" viewBox="0 0 206 207" version="1.1" xmlns="http://www.w3.org/2000/svg" xmlns:xlink="http://www.w3.org/1999/xlink">
    <g stroke="none" stroke-width="1" fill="none" fill-rule="evenodd">
        <g transform="translate(-2646.000000, -961.000000)" fill-rule="nonzero">
            <g transform="translate(2646.000000, 961.000000)">
                <path d="M104.9,166.9 C107.8,166.9 110.8,164.9 110.8,162.7 L110.8,158.2 C128.9,155.3 141.3,143.6 141.3,124.4 C141.3,103.5 124.9,96.2 110.8,90.9 L110.8,68.3 C120.9,69.1 123.8,74 128.9,74 C135.7,74 138.5,65.5 138.5,61.3 C138.5,50.6 120.4,48.1 110.8,47.8 L110.8,43.9 C110.8,41.7 107.9,39.7 104.9,39.7 C101.5,39.7 99,41.7 99,43.9 L99,48.2 C82.6,50.5 68,60 68,79.6 C68,99.4 84.7,106.1 99,111.5 L99,136.6 C87.5,134.6 82.3,125.4 75.8,125.4 C69.9,125.4 65.3,133.1 65.3,138.4 C65.3,148.3 80.5,157.9 99.1,158.5 L99.1,162.4 C99,164.9 101.5,166.9 104.9,166.9 Z M109.2,116 C114.8,118.6 118.6,121.9 118.6,127 C118.6,132.6 114.4,135.5 109.2,136.8 L109.2,116 Z M90.6,77.6 C90.6,73.9 93.5,70.3 100.5,68.9 L100.5,87.3 C94.6,84.8 90.6,82 90.6,77.6 Z" id="Shape" fill="#FFF"></path>
                <path d="M204.8,88.5 C204.8,88.2 204.7,87.9 204.6,87.6 C204.6,87.6 204.6,87.6 204.6,87.6 C203.8,84.9 201.2,82.9 198.2,82.9 C194.5,82.9 191.5,85.9 191.5,89.6 C191.5,89.9 191.5,90.1 191.5,90.3 C192.1,94.6 192.5,99 192.5,103.4 C192.5,152.7 152.4,192.8 103.1,192.8 C53.8,192.8 13.7,152.7 13.7,103.4 C13.7,54.1 53.8,14 103.1,14 C132.5,14 155.5,24.2 171.6,46 C171.8,46.4 172.1,46.8 172.4,47.1 C172.4,47.1 172.4,47.1 172.4,47.2 C173.6,48.5 175.4,49.4 177.3,49.4 C181,49.4 184,46.4 184,42.7 C184,41.1 183.5,39.7 182.6,38.6 C163.9,12.9 137.1,0.7 102.9,0.7 C46.2,0.7 0.1,46.8 0.1,103.5 C0.1,160.2 46.2,206.3 102.9,206.3 C159.6,206.3 205.7,160.2 205.7,103.5 C206.1,96 206.2,94.9 204.8,88.5 Z" id="Shape" fill="#FFF"></path>
            </g>
        </g>
    </g>
</svg>
