<?xml version="1.0" encoding="utf-8"?>
<!-- Generator: Adobe Illustrator 22.1.0, SVG Export Plug-In . SVG Version: 6.00 Build 0)  -->
<svg version="1.1" id="Layer_1" xmlns="http://www.w3.org/2000/svg" xmlns:xlink="http://www.w3.org/1999/xlink" x="0px" y="0px"
	 viewBox="0 0 341.2 341.2" style="enable-background:new 0 0 341.2 341.2;" xml:space="preserve">
<style type="text/css">
	.st0{fill:url(#SVGID_1_);}
	.st1{fill:url(#SVGID_2_);}
	.st2{fill:url(#SVGID_3_);}
	.st3{fill:url(#SVGID_4_);}
	.st4{fill:url(#SVGID_5_);}
	.st5{fill:url(#SVGID_6_);}
	.st6{fill:url(#SVGID_7_);}
	.st7{fill:url(#SVGID_8_);}
	.st8{fill:url(#SVGID_9_);}
	.st9{fill:url(#SVGID_10_);}
	.st10{fill:url(#SVGID_11_);}
	.st11{fill:url(#SVGID_12_);}
	.st12{fill:url(#SVGID_13_);}
	.st13{fill:url(#SVGID_14_);}
	.st14{fill:url(#SVGID_15_);}
	.st15{fill:url(#SVGID_16_);}
	.st16{fill:url(#SVGID_17_);}
	.st17{fill:url(#SVGID_18_);}
	.st18{fill:url(#SVGID_19_);}
	.st19{fill:url(#SVGID_20_);}
	.st20{fill:url(#SVGID_21_);}
	.st21{fill:url(#SVGID_22_);}
	.st22{fill:url(#SVGID_23_);}
	.st23{fill:url(#SVGID_24_);}
	.st24{fill:url(#SVGID_25_);}
	.st25{fill:url(#SVGID_26_);}
	.st26{fill:url(#SVGID_27_);}
	.st27{fill:url(#SVGID_28_);}
	.st28{fill:url(#SVGID_29_);}
	.st29{fill:url(#SVGID_30_);}
	.st30{fill:url(#SVGID_31_);}
	.st31{fill:url(#SVGID_32_);}
	.st32{fill:url(#SVGID_33_);}
	.st33{fill:url(#SVGID_34_);}
	.st34{fill:url(#SVGID_35_);}
	.st35{fill:url(#SVGID_36_);}
	.st36{fill:url(#SVGID_37_);}
	.st37{fill:url(#SVGID_38_);}
	.st38{fill:url(#SVGID_39_);}
	.st39{fill:url(#SVGID_40_);}
	.st40{fill:url(#SVGID_41_);}
	.st41{fill:url(#SVGID_42_);}
	.st42{fill:url(#SVGID_43_);}
	.st43{fill:url(#SVGID_44_);}
	.st44{fill:url(#SVGID_45_);}
	.st45{fill:url(#SVGID_46_);}
	.st46{fill:url(#SVGID_47_);}
	.st47{fill:url(#SVGID_48_);}
	.st48{fill:url(#SVGID_49_);}
	.st49{fill:url(#SVGID_50_);}
	.st50{fill:url(#SVGID_51_);}
	.st51{fill:url(#SVGID_52_);}
	.st52{fill:url(#SVGID_53_);}
	.st53{fill:url(#SVGID_54_);}
	.st54{fill:url(#SVGID_55_);}
	.st55{fill:url(#SVGID_56_);}
	.st56{fill:url(#SVGID_57_);}
	.st57{fill:url(#SVGID_58_);}
	.st58{fill:url(#SVGID_59_);}
	.st59{fill:url(#SVGID_60_);}
	.st60{fill:url(#SVGID_61_);}
	.st61{fill:url(#SVGID_62_);}
	.st62{fill:#272727;}
	.st63{fill:#D7D7D7;}
	.st64{fill:url(#SVGID_63_);}
</style>
<g>
	
		<linearGradient id="SVGID_1_" gradientUnits="userSpaceOnUse" x1="88.25" y1="521.5299" x2="242.7499" y2="521.5299" gradientTransform="matrix(1 0 0 -1 0 852.2297)">
		<stop  offset="0" style="stop-color:#B50B60"/>
		<stop  offset="1" style="stop-color:#C42466"/>
	</linearGradient>
	<path class="st0" d="M237.5,320.3H93.3c-2.8,0-5.1,2.3-5.1,5.2v10.3c0,2.8,2.3,5.2,5.1,5.2c2.8,0,5.2-2.3,5.2-5.2v-5.2h139.1
		c2.8,0,5.1-2.3,5.1-5.1C242.6,322.6,240.3,320.3,237.5,320.3z"/>
	
		<linearGradient id="SVGID_2_" gradientUnits="userSpaceOnUse" x1="16.05" y1="701.9799" x2="88.1644" y2="701.9799" gradientTransform="matrix(1 0 0 -1 0 852.2297)">
		<stop  offset="0" style="stop-color:#B50B60"/>
		<stop  offset="1" style="stop-color:#C42466"/>
	</linearGradient>
	<path class="st1" d="M83,93.6H21.3c-2.8,0-5.2,2.3-5.2,5.1v103c0,2.8,2.3,5.1,5.2,5.1c2.8,0,5.1-2.3,5.1-5.1v-97.9h56.7
		c2.8,0,5.2-2.3,5.2-5.2C88.1,95.9,85.8,93.6,83,93.6z"/>
	
		<linearGradient id="SVGID_3_" gradientUnits="userSpaceOnUse" x1="16.0425" y1="573.1299" x2="67.5519" y2="573.1299" gradientTransform="matrix(1 0 0 -1 0 852.2297)">
		<stop  offset="0" style="stop-color:#B50B60"/>
		<stop  offset="1" style="stop-color:#C42466"/>
	</linearGradient>
	<path class="st2" d="M41.8,217.2c-25.5,0-25.8,66.3-25.8,67c0,12.4,8.9,22.8,20.6,25.2v26.3c0,2.8,2.3,5.2,5.2,5.2
		c2.8,0,5.2-2.3,5.2-5.2v-26.3c11.7-2.4,20.6-12.8,20.6-25.2C67.5,283.5,67.3,217.2,41.8,217.2z M41.8,299.7
		c-8.5,0-15.5-6.9-15.5-15.5c0-25.7,6.9-56.7,15.5-56.7s15.5,31,15.5,56.7C57.3,292.7,50.3,299.7,41.8,299.7z"/>
	
		<linearGradient id="SVGID_4_" gradientUnits="userSpaceOnUse" x1="252.95" y1="634.8799" x2="325.0649" y2="634.8799" gradientTransform="matrix(1 0 0 -1 0 852.2297)">
		<stop  offset="0" style="stop-color:#B50B60"/>
		<stop  offset="1" style="stop-color:#C42466"/>
	</linearGradient>
	<path class="st3" d="M319.9,93.6h-61.8c-2.8,0-5.2,2.3-5.2,5.1c0,2.8,2.3,5.2,5.2,5.2h56.7v207c-1.6-0.6-3.3-0.9-5.1-0.9
		c-0.9,0-1.8,0.1-2.6,0.2c-3.6-6.4-10.3-10.5-18-10.5c-7.6,0-14.4,4.1-18,10.5c-0.9-0.2-1.8-0.2-2.6-0.2c-8.5,0-15.5,6.9-15.5,15.5
		c0,8.5,6.9,15.5,15.5,15.5h41.2c8.5,0,15.5-6.9,15.5-15.5V98.9C325.1,95.9,322.8,93.6,319.9,93.6z M309.6,330.6h-41.2
		c-2.8,0-5.2-2.3-5.2-5.1s2.3-5.2,5.2-5.2c1,0,1.9,0.3,2.8,0.8c1.4,0.9,3.2,1.1,4.7,0.4c1.6-0.6,2.7-2,3.1-3.6c1.1-4.7,5.2-8,10-8
		s8.9,3.3,10,8c0.4,1.6,1.5,3,3.1,3.6s3.3,0.5,4.7-0.4c3.4-2.2,7.9,0.5,7.9,4.3C314.8,328.3,312.4,330.6,309.6,330.6z"/>
	
		<linearGradient id="SVGID_5_" gradientUnits="userSpaceOnUse" x1="127.25" y1="768.9297" x2="213.1499" y2="768.9297" gradientTransform="matrix(1 0 0 -1 0 852.2297)">
		<stop  offset="0" style="stop-color:#B50B60"/>
		<stop  offset="1" style="stop-color:#C42466"/>
	</linearGradient>
	<path class="st4" d="M132.3,103.9H208c2.8,0,5.1-2.3,5.1-5.2V67.8c0-2.8-2.3-5.2-5.1-5.2h-75.7c-2.8,0-5.1,2.3-5.1,5.2v30.9
		C127.3,101.6,129.5,103.9,132.3,103.9z M137.5,73h65.4v20.6h-65.4V73z"/>
	
		<linearGradient id="SVGID_6_" gradientUnits="userSpaceOnUse" x1="127.25" y1="708.8299" x2="213.1499" y2="708.8299" gradientTransform="matrix(1 0 0 -1 0 852.2297)">
		<stop  offset="0" style="stop-color:#B50B60"/>
		<stop  offset="1" style="stop-color:#C42466"/>
	</linearGradient>
	<path class="st5" d="M127.3,158.8c0,2.8,2.3,5.2,5.1,5.2H208c2.8,0,5.1-2.3,5.1-5.2v-30.9c0-2.8-2.3-5.2-5.1-5.2h-75.7
		c-2.8,0-5.1,2.3-5.1,5.2V158.8z M137.5,133h65.4v20.6h-65.4V133z"/>
	
		<linearGradient id="SVGID_7_" gradientUnits="userSpaceOnUse" x1="127.25" y1="648.9299" x2="213.1499" y2="648.9299" gradientTransform="matrix(1 0 0 -1 0 852.2297)">
		<stop  offset="0" style="stop-color:#B50B60"/>
		<stop  offset="1" style="stop-color:#C42466"/>
	</linearGradient>
	<path class="st6" d="M127.3,218.7c0,2.8,2.3,5.2,5.1,5.2H208c2.8,0,5.1-2.3,5.1-5.2v-30.9c0-2.8-2.3-5.2-5.1-5.2h-75.7
		c-2.8,0-5.1,2.3-5.1,5.2V218.7z M137.5,193h65.4v20.6h-65.4V193z"/>
	
		<linearGradient id="SVGID_8_" gradientUnits="userSpaceOnUse" x1="119.0499" y1="573.1299" x2="222.1497" y2="573.1299" gradientTransform="matrix(1 0 0 -1 0 852.2297)">
		<stop  offset="0" style="stop-color:#B50B60"/>
		<stop  offset="1" style="stop-color:#C42466"/>
	</linearGradient>
	<path class="st7" d="M119,253.3c0,2.8,2.3,5.1,5.1,5.1h15.5v46.4c0,2.8,2.3,5.2,5.2,5.2c2.8,0,5.1-2.3,5.1-5.2v-46.4h41.2v46.4
		c0,2.8,2.3,5.2,5.2,5.2c2.8,0,5.1-2.3,5.1-5.2v-46.4h15.5c2.8,0,5.2-2.3,5.2-5.1c0-2.8-2.3-5.2-5.2-5.2h-92.7
		C121.3,248.2,119,250.5,119,253.3z"/>
	
		<linearGradient id="SVGID_9_" gradientUnits="userSpaceOnUse" x1="98.45" y1="681.2799" x2="242.6498" y2="681.2799" gradientTransform="matrix(1 0 0 -1 0 852.2297)">
		<stop  offset="0" style="stop-color:#B50B60"/>
		<stop  offset="1" style="stop-color:#C42466"/>
	</linearGradient>
	<path class="st8" d="M237.5,31.8H103.6c-2.8,0-5.2,2.3-5.2,5.2v267.8c0,2.8,2.3,5.2,5.2,5.2c2.8,0,5.1-2.3,5.1-5.2V42.1h123.6
		v262.7c0,2.8,2.3,5.2,5.2,5.2c2.8,0,5.1-2.3,5.1-5.2V37C242.6,34.1,240.3,31.8,237.5,31.8z"/>
</g>
</svg>
