<svg xmlns="http://www.w3.org/2000/svg" xmlns:xlink="http://www.w3.org/1999/xlink" version="1.1" style="enable-background:new 0 0 485 485;" xml:space="preserve" width="485" height="485"><rect id="backgroundrect" width="100%" height="100%" x="0" y="0" fill="none" stroke="none"/>
















<g class="currentLayer" style=""><title>Layer 1</title><path d="M413.974,71.026C368.171,25.225,307.274,0,242.5,0S116.829,25.225,71.026,71.026C25.225,116.829,0,177.726,0,242.5  s25.225,125.671,71.026,171.474C116.829,459.775,177.726,485,242.5,485c32.731,0,64.491-6.414,94.397-19.063l-11.688-27.63  C299.022,449.384,271.194,455,242.5,455C125.327,455,30,359.673,30,242.5S125.327,30,242.5,30S455,125.327,455,242.5  c0,51.323-31.534,74.699-60.834,74.699c-29.299,0-60.833-23.375-60.833-74.699c0-50.086-40.747-90.833-90.833-90.833  s-90.833,40.748-90.833,90.833s40.747,90.833,90.833,90.833c29.655,0,56.034-14.286,72.622-36.335  c4.248,8.577,9.594,16.336,16.04,23.113c16.613,17.468,38.988,27.087,63.004,27.087c24.017,0,46.392-9.62,63.005-27.087  C475.377,300.97,485,274.132,485,242.5C485,177.726,459.775,116.829,413.974,71.026z M242.5,303.333  c-33.543,0-60.833-27.29-60.833-60.833s27.29-60.833,60.833-60.833s60.833,27.29,60.833,60.833S276.043,303.333,242.5,303.333z" id="svg_1" class="selected" fill="#FFFFFF" fill-opacity="1"/><g id="svg_2">
</g><g id="svg_3">
</g><g id="svg_4">
</g><g id="svg_5">
</g><g id="svg_6">
</g><g id="svg_7">
</g><g id="svg_8">
</g><g id="svg_9">
</g><g id="svg_10">
</g><g id="svg_11">
</g><g id="svg_12">
</g><g id="svg_13">
</g><g id="svg_14">
</g><g id="svg_15">
</g><g id="svg_16">
</g></g></svg>