<?xml version="1.0" encoding="utf-8"?>
<!-- Generator: Adobe Illustrator 22.1.0, SVG Export Plug-In . SVG Version: 6.00 Build 0)  -->
<svg version="1.1" id="Layer_1" xmlns="http://www.w3.org/2000/svg" xmlns:xlink="http://www.w3.org/1999/xlink" x="0px" y="0px"
	 viewBox="0 0 341.2 341.2" style="enable-background:new 0 0 341.2 341.2;" xml:space="preserve">
<style type="text/css">
	.st0{fill:url(#SVGID_1_);}
	.st1{fill:url(#SVGID_2_);}
	.st2{fill:url(#SVGID_3_);}
	.st3{fill:url(#SVGID_4_);}
	.st4{fill:url(#SVGID_5_);}
	.st5{fill:url(#SVGID_6_);}
	.st6{fill:url(#SVGID_7_);}
	.st7{fill:url(#SVGID_8_);}
	.st8{fill:url(#SVGID_9_);}
	.st9{fill:url(#SVGID_10_);}
	.st10{fill:url(#SVGID_11_);}
	.st11{fill:url(#SVGID_12_);}
	.st12{fill:url(#SVGID_13_);}
	.st13{fill:url(#SVGID_14_);}
	.st14{fill:url(#SVGID_15_);}
	.st15{fill:url(#SVGID_16_);}
	.st16{fill:url(#SVGID_17_);}
	.st17{fill:url(#SVGID_18_);}
	.st18{fill:url(#SVGID_19_);}
	.st19{fill:url(#SVGID_20_);}
	.st20{fill:url(#SVGID_21_);}
	.st21{fill:url(#SVGID_22_);}
	.st22{fill:url(#SVGID_23_);}
	.st23{fill:url(#SVGID_24_);}
	.st24{fill:url(#SVGID_25_);}
	.st25{fill:url(#SVGID_26_);}
	.st26{fill:url(#SVGID_27_);}
	.st27{fill:url(#SVGID_28_);}
	.st28{fill:url(#SVGID_29_);}
	.st29{fill:url(#SVGID_30_);}
	.st30{fill:url(#SVGID_31_);}
	.st31{fill:url(#SVGID_32_);}
	.st32{fill:url(#SVGID_33_);}
	.st33{fill:url(#SVGID_34_);}
	.st34{fill:url(#SVGID_35_);}
	.st35{fill:url(#SVGID_36_);}
	.st36{fill:url(#SVGID_37_);}
	.st37{fill:url(#SVGID_38_);}
	.st38{fill:url(#SVGID_39_);}
	.st39{fill:url(#SVGID_40_);}
	.st40{fill:url(#SVGID_41_);}
	.st41{fill:url(#SVGID_42_);}
	.st42{fill:url(#SVGID_43_);}
	.st43{fill:url(#SVGID_44_);}
	.st44{fill:url(#SVGID_45_);}
	.st45{fill:url(#SVGID_46_);}
	.st46{fill:url(#SVGID_47_);}
	.st47{fill:url(#SVGID_48_);}
	.st48{fill:url(#SVGID_49_);}
	.st49{fill:url(#SVGID_50_);}
	.st50{fill:url(#SVGID_51_);}
	.st51{fill:url(#SVGID_52_);}
	.st52{fill:url(#SVGID_53_);}
	.st53{fill:url(#SVGID_54_);}
	.st54{fill:url(#SVGID_55_);}
	.st55{fill:url(#SVGID_56_);}
	.st56{fill:url(#SVGID_57_);}
	.st57{fill:url(#SVGID_58_);}
	.st58{fill:url(#SVGID_59_);}
	.st59{fill:url(#SVGID_60_);}
	.st60{fill:url(#SVGID_61_);}
	.st61{fill:url(#SVGID_62_);}
	.st62{fill:#272727;}
	.st63{fill:#D7D7D7;}
	.st64{fill:url(#SVGID_63_);}
</style>
<linearGradient id="SVGID_1_" gradientUnits="userSpaceOnUse" x1="1.55" y1="1411.8302" x2="340.0504" y2="1411.8302" gradientTransform="matrix(1 0 0 -1 0 1597.6301)">
	<stop  offset="0" style="stop-color:#B50B60"/>
	<stop  offset="1" style="stop-color:#C42466"/>
</linearGradient>
<path class="st0" d="M325.9,236.5L287.1,221c-0.2-0.1-0.4-0.2-0.6-0.3c26.8-6.1,39.5-16.3,40.1-16.8c1.3-1.1,2-2.8,1.8-4.5
	c-0.1-0.4-5.6-39.7-5.6-78.6c0-37.1-30.2-67.2-67.2-67.2s-67.2,30.2-67.2,67.2c0,10.2-0.5,22.6-1.2,34.4l-10.8,5.4l-31.8-15.9
	c-0.1,0-0.2-0.1-0.3-0.1c1.5-4.4,2.5-9,2.9-13.9c6.6-2.1,11.5-8.3,11.5-15.6c0-4.9-2.2-9.3-5.7-12.3v-33c0-9.1-4.6-17.6-12.2-22.8
	c-2.6-9.5-11.1-16.2-21.1-16.2H74.5c-24.6,0-44.6,20-44.6,44.6v27.3c-3.5,3-5.7,7.4-5.7,12.3c0,7.3,4.8,13.5,11.5,15.6
	c1.3,16.6,9.8,31.3,22.5,40.7v13.7l-41,12.3c-9.4,2.8-15.6,11.3-15.6,21v55.3c0,2.7,2.2,5,5,5h0.7v57.3c0,2.7,2.2,5,5,5s5-2.2,5-5
	v-57.3h18.4v57.3c0,2.7,2.2,5,5,5s5-2.2,5-5v-85.5c0-4.3-1.3-8.6-3.7-12.2l-8.5-12.7c-1.5-2.3-4.6-2.9-6.9-1.4s-2.9,4.6-1.4,6.9
	l8.5,12.7c1.3,2,2,4.3,2,6.7v18.2H12.3h-0.7v-50.4c0-5.4,3.4-10,8.6-11.5l17-5.1c5.9,24.8,28.4,42.9,54.4,42.9
	c9.3,0,18.4-2.3,26.5-6.7c3,4,7.7,6.7,13.1,6.7h0.7v0.7c0,16.6,9.1,31.1,22.7,38.8v8.1c0,0.3-0.2,0.6-0.5,0.7l-18.5,6.2
	c-9,3-15,11.4-15,20.8v16.1c0,2.7,2.2,5,5,5s5-2.2,5-5v-16.1c0-5.2,3.3-9.8,8.2-11.4l5.4-1.8c7.2,10.7,19.3,17.3,32.3,17.3
	c13.1,0,25.2-6.5,32.3-17.3l5.4,1.8c4.9,1.6,8.2,6.2,8.2,11.4v16.1c0,2.7,2.2,5,5,5c2.7,0,5-2.2,5-5v-16.1c0-9.5-6-17.8-15-20.8
	l-18.5-6.2c-0.3-0.1-0.5-0.4-0.5-0.7v-8.1c10.1-5.7,17.8-15.3,21-26.8c9.4,9.8,22.4,15.6,36.4,15.6c21.9,0,41.2-14.2,47.8-34.8
	l18.9,7.6c4.6,1.8,7.6,6.2,7.6,11.2v23.2h-0.7h-17.7v-6.4c0-2.7-2.2-5-5-5s-5,2.2-5,5v62.3c0,2.7,2.2,5,5,5s5-2.2,5-5v-46h12.7v46
	c0,2.7,2.2,5,5,5s5-2.2,5-5v-46h0.7c1.3,0,2.6-0.5,3.5-1.5c0.9-0.9,1.5-2.2,1.5-3.5v-28.1C339.8,247.9,334.3,239.9,325.9,236.5z
	 M198.1,120.8c0-31.6,25.7-57.3,57.3-57.3s57.3,25.7,57.3,57.3c0,33.3,4,66.9,5.3,77c-4.4,2.9-15.8,9.3-35,13.5v-7.9
	c2.6-1.5,5.2-3.2,7.5-5.1c9.8-7.9,16.6-18.9,19.4-31.1c0.9-4.1,1.4-8.2,1.4-12.4c0-28-20.3-32-39.9-35.9c-12.5-2.5-25.4-5-35.6-13.2
	c-1.5-1.2-3.5-1.4-5.2-0.6c-1.7,0.8-2.8,2.6-2.8,4.5c0,0.1-0.2,13.2-18.9,17.8c-2.7,0.7-4.3,3.4-3.6,6c0.7,2.7,3.4,4.3,6,3.6
	c15.6-3.9,22-12.7,24.6-19.3c10.7,6.4,22.8,8.8,33.6,10.9c20.9,4.2,31.9,7.2,31.9,26.2c0,3.5-0.4,6.9-1.1,10.2
	c-2.3,10-7.9,19.1-16,25.6c-8.3,6.7-18.3,10.2-28.9,10.2c-9.7,0-18.9-3-26.8-8.6c-2.9-7.8-7.5-15-13.6-20.9v-22.2
	c0-1.7-0.9-3.3-2.4-4.2s-3.3-1-4.8-0.2l-10.7,5.4C197.8,139.7,198.1,129.9,198.1,120.8z M205.3,157.2v17.9l-17.9-9L205.3,157.2z
	 M147.3,157.2l17.9,9l-17.9,9V157.2z M137.3,171.3c-5.6,5.4-9.9,11.8-12.8,18.9c0-0.5,0-0.9,0-1.4v-17.4c4.9-3.7,9.2-8.1,12.7-13.2
	v13.1H137.3z M45.3,126.5c0-2.7-2.2-5-5-5c-3.5,0-6.4-2.9-6.4-6.4s2.9-6.4,6.4-6.4h11.3c2.1,0,4-1.4,4.7-3.4l4.5-13.6
	c11.4-0.3,46.7-1.9,66.6-11.8c2.4-1.2,3.4-4.2,2.2-6.6c-1.2-2.4-4.2-3.4-6.6-2.2c-21.3,10.7-65.3,10.8-65.7,10.8
	c-2.1,0-4,1.4-4.7,3.4l-4.5,13.6h-7.8c-0.2,0-0.5,0-0.7,0V75.5c0-19.1,15.6-34.7,34.7-34.7h45.3c5.9,0,10.9,4.3,11.8,10.1
	c0.2,1.5,1.1,2.8,2.5,3.5c5.6,3.2,9.1,9,9.1,15.3v29c-0.2,0-0.5,0-0.7,0h-5.7c-2.7,0-5,2.2-5,5s2.2,5,5,5h5.7c3.5,0,6.4,2.9,6.4,6.4
	s-2.9,6.4-6.4,6.4c-2.7,0-5,2.2-5,5c0,25.4-20.6,46-46,46C65.9,172.5,45.3,151.9,45.3,126.5z M91.3,182.4c8.3,0,16.2-1.8,23.4-5.1
	v11.5c0,12.9-10.5,23.4-23.4,23.4s-23.3-10.4-23.4-23.3c0,0,0,0,0-0.1v-11.5C75,180.6,82.9,182.4,91.3,182.4z M46.4,198.9l12.2-3.7
	c3,15.3,16.5,26.8,32.6,26.8c12.8,0,23.9-7.3,29.5-17.9c-0.3,2.4-0.5,4.8-0.5,7.3v4.7c-3.5,3.1-5.7,7.5-5.7,12.3
	c-7.1,4.2-15.1,6.4-23.4,6.4C69.8,234.8,51,219.6,46.4,198.9z M195.5,302.4l3.2,1.1c-5.5,6.7-13.7,10.6-22.5,10.6s-17-4-22.5-10.6
	l3.2-1.1c4.3-1.4,7.3-5.5,7.3-10.1v-4c3.8,1.1,7.9,1.7,12,1.7c4.2,0,8.2-0.6,12-1.7v4C188.3,296.9,191.1,300.9,195.5,302.4z
	 M176.3,280.1c-19.1,0-34.7-15.6-34.7-34.7v-5.7c0-2.7-2.2-5-5-5h-5.7c-3.5,0-6.4-2.9-6.4-6.4c0-2.3,1.2-4.3,3.2-5.5
	c0.4-0.3,0.8-0.6,1.2-1c12.3-0.4,52-2.7,78.1-17.6c2.4-1.4,3.2-4.4,1.8-6.8c-1.4-2.4-4.4-3.2-6.8-1.8
	c-22.9,13.1-58.8,15.7-71.9,16.2v-0.6c0-9.2,2.8-18.1,7.8-25.7c0.4,0.6,0.9,1.2,1.6,1.6c0.8,0.5,1.7,0.7,2.6,0.7
	c0.8,0,1.5-0.2,2.2-0.5l31.8-15.9l31.8,15.9c0.7,0.3,1.5,0.5,2.2,0.5c0.9,0,1.8-0.2,2.6-0.7c0.7-0.4,1.2-0.9,1.6-1.6
	c5.1,7.5,7.8,16.5,7.8,25.7v7.2c0,1.8,0.9,3.4,2.5,4.3c2,1.2,3.2,3.2,3.2,5.5c0,3.5-2.9,6.4-6.4,6.4h-5.7c-2.7,0-5,2.2-5,5v4.9v0.1
	v0.6C210.9,264.5,195.3,280.1,176.3,280.1z M255.5,263.1c-13.7,0-26.5-7-33.9-18.4c8.9-0.1,16.2-7.3,16.2-16.3
	c0-4.7-2.1-9.2-5.7-12.3v-4.7c0-2-0.1-4-0.3-5.9c7.3,3.4,15.4,5.2,23.7,5.2c6,0,12-1,17.7-2.9v7.3c0,6.7,4,12.6,10.2,15.1l10.7,4.3
	C289,251.4,273.3,263.1,255.5,263.1z"/>
</svg>
