<?xml version="1.0" encoding="utf-8"?>
<!-- Generator: Adobe Illustrator 22.1.0, SVG Export Plug-In . SVG Version: 6.00 Build 0)  -->
<svg version="1.1" id="Layer_1" xmlns="http://www.w3.org/2000/svg" xmlns:xlink="http://www.w3.org/1999/xlink" x="0px" y="0px"
	 viewBox="0 0 214.2 214.2" style="enable-background:new 0 0 214.2 214.2;" xml:space="preserve">
<style type="text/css">
	.st0{fill:url(#SVGID_1_);}
	.st1{fill:url(#SVGID_2_);}
	.st2{fill:url(#SVGID_3_);}
	.st3{fill:url(#SVGID_4_);}
	.st4{fill:url(#SVGID_5_);}
	.st5{fill:url(#SVGID_6_);}
	.st6{fill:url(#SVGID_7_);}
	.st7{fill:url(#SVGID_8_);}
	.st8{fill:url(#SVGID_9_);}
	.st9{fill:url(#SVGID_10_);}
	.st10{fill:url(#SVGID_11_);}
	.st11{fill:url(#SVGID_12_);}
	.st12{fill:url(#SVGID_13_);}
	.st13{fill:url(#SVGID_14_);}
	.st14{fill:url(#SVGID_15_);}
	.st15{fill:url(#SVGID_16_);}
	.st16{fill:url(#SVGID_17_);}
	.st17{fill:url(#SVGID_18_);}
	.st18{fill:url(#SVGID_19_);}
	.st19{fill:url(#SVGID_20_);}
	.st20{fill:url(#SVGID_21_);}
	.st21{fill:url(#SVGID_22_);}
	.st22{fill:url(#SVGID_23_);}
	.st23{fill:url(#SVGID_24_);}
	.st24{fill:url(#SVGID_25_);}
	.st25{fill:url(#SVGID_26_);}
	.st26{fill:url(#SVGID_27_);}
	.st27{fill:url(#SVGID_28_);}
	.st28{fill:url(#SVGID_29_);}
	.st29{fill:url(#SVGID_30_);}
	.st30{fill:url(#SVGID_31_);}
	.st31{fill:url(#SVGID_32_);}
	.st32{fill:url(#SVGID_33_);}
	.st33{fill:url(#SVGID_34_);}
	.st34{fill:url(#SVGID_35_);}
	.st35{fill:url(#SVGID_36_);}
	.st36{fill:url(#SVGID_37_);}
	.st37{fill:url(#SVGID_38_);}
	.st38{fill:url(#SVGID_39_);}
	.st39{fill:url(#SVGID_40_);}
	.st40{fill:url(#SVGID_41_);}
	.st41{fill:url(#SVGID_42_);}
	.st42{fill:url(#SVGID_43_);}
	.st43{fill:url(#SVGID_44_);}
	.st44{fill:url(#SVGID_45_);}
	.st45{fill:url(#SVGID_46_);}
	.st46{fill:url(#SVGID_47_);}
	.st47{fill:url(#SVGID_48_);}
	.st48{fill:url(#SVGID_49_);}
	.st49{fill:url(#SVGID_50_);}
	.st50{fill:url(#SVGID_51_);}
	.st51{fill:url(#SVGID_52_);}
	.st52{fill:url(#SVGID_53_);}
	.st53{fill:url(#SVGID_54_);}
	.st54{fill:url(#SVGID_55_);}
	.st55{fill:url(#SVGID_56_);}
	.st56{fill:url(#SVGID_57_);}
	.st57{fill:url(#SVGID_58_);}
	.st58{fill:url(#SVGID_59_);}
	.st59{fill:url(#SVGID_60_);}
	.st60{fill:url(#SVGID_61_);}
	.st61{fill:url(#SVGID_62_);}
	.st62{fill:#272727;}
	.st63{fill:#D7D7D7;}
	.st64{fill:url(#SVGID_63_);}
</style>
<linearGradient id="SVGID_1_" gradientUnits="userSpaceOnUse" x1="6.0845" y1="992.0796" x2="211.9008" y2="992.0796" gradientTransform="matrix(1 0 0 -1 0 1098.03)">
	<stop  offset="0" style="stop-color:#B50B60"/>
	<stop  offset="1" style="stop-color:#C42466"/>
</linearGradient>
<path class="st0" d="M210.6,90.9c0-0.3-0.1-0.6-0.2-0.9l0,0l0,0c-0.8-2.7-3.4-4.7-6.4-4.7c-3.7,0-6.7,3-6.7,6.7c0,0.3,0,0.5,0,0.7
	l0,0c0.6,4.3,1,8.7,1,13.1c0,49.3-40.1,89.4-89.4,89.4s-89.4-40.1-89.4-89.4s40.1-89.4,89.4-89.4c29.4,0,52.4,10.2,68.5,32
	c0.2,0.4,0.5,0.8,0.8,1.1c0,0,0,0,0,0.1l0,0c1.2,1.3,3,2.2,4.9,2.2c3.7,0,6.7-3,6.7-6.7c0-1.6-0.5-3-1.4-4.1l0,0
	c-18.7-25.7-45.5-37.9-79.7-37.9C52,3.2,5.9,49.3,5.9,106S52,208.8,108.7,208.8c56.7,0,102.8-46.1,102.8-102.8
	C211.8,98.4,211.9,97.4,210.6,90.9z"/>
<linearGradient id="SVGID_2_" gradientUnits="userSpaceOnUse" x1="53.2501" y1="992.2798" x2="164.8064" y2="992.2798" gradientTransform="matrix(1 0 0 -1 0 1098.03)">
	<stop  offset="0" style="stop-color:#B50B60"/>
	<stop  offset="1" style="stop-color:#C42466"/>
</linearGradient>
<path class="st1" d="M153.6,94.7h-33.5V61.2c0-6.2-5-11.1-11.1-11.1c-6.2,0-11.1,5-11.1,11.1v33.5H64.4c-6.2,0-11.1,5-11.1,11.1l0,0
	c0,6.2,5,11.1,11.1,11.1h33.5v33.5c0,6.2,5,11.1,11.1,11.1c6.2,0,11.1-5,11.1-11.1v-33.5h33.5c6.2,0,11.1-5,11.1-11.1l0,0
	C164.8,99.7,159.8,94.7,153.6,94.7z"/>
</svg>
