<?xml version="1.0" encoding="utf-8"?>
<!-- Generator: Adobe Illustrator 22.1.0, SVG Export Plug-In . SVG Version: 6.00 Build 0)  -->
<svg version="1.1" id="Layer_1" xmlns="http://www.w3.org/2000/svg" xmlns:xlink="http://www.w3.org/1999/xlink" x="0px" y="0px"
	 viewBox="0 0 341.2 341.2" style="enable-background:new 0 0 341.2 341.2;" xml:space="preserve">
<style type="text/css">
	.st0{fill:url(#SVGID_1_);}
	.st1{fill:url(#SVGID_2_);}
	.st2{fill:url(#SVGID_3_);}
	.st3{fill:url(#SVGID_4_);}
	.st4{fill:url(#SVGID_5_);}
	.st5{fill:url(#SVGID_6_);}
	.st6{fill:url(#SVGID_7_);}
	.st7{fill:url(#SVGID_8_);}
	.st8{fill:url(#SVGID_9_);}
	.st9{fill:url(#SVGID_10_);}
	.st10{fill:url(#SVGID_11_);}
	.st11{fill:url(#SVGID_12_);}
	.st12{fill:url(#SVGID_13_);}
	.st13{fill:url(#SVGID_14_);}
	.st14{fill:url(#SVGID_15_);}
	.st15{fill:url(#SVGID_16_);}
	.st16{fill:url(#SVGID_17_);}
	.st17{fill:url(#SVGID_18_);}
	.st18{fill:url(#SVGID_19_);}
	.st19{fill:url(#SVGID_20_);}
	.st20{fill:url(#SVGID_21_);}
	.st21{fill:url(#SVGID_22_);}
	.st22{fill:url(#SVGID_23_);}
	.st23{fill:url(#SVGID_24_);}
	.st24{fill:url(#SVGID_25_);}
	.st25{fill:url(#SVGID_26_);}
	.st26{fill:url(#SVGID_27_);}
	.st27{fill:url(#SVGID_28_);}
	.st28{fill:url(#SVGID_29_);}
	.st29{fill:url(#SVGID_30_);}
	.st30{fill:url(#SVGID_31_);}
	.st31{fill:url(#SVGID_32_);}
	.st32{fill:url(#SVGID_33_);}
	.st33{fill:url(#SVGID_34_);}
	.st34{fill:url(#SVGID_35_);}
	.st35{fill:url(#SVGID_36_);}
	.st36{fill:url(#SVGID_37_);}
	.st37{fill:url(#SVGID_38_);}
	.st38{fill:url(#SVGID_39_);}
	.st39{fill:url(#SVGID_40_);}
	.st40{fill:url(#SVGID_41_);}
	.st41{fill:url(#SVGID_42_);}
	.st42{fill:url(#SVGID_43_);}
	.st43{fill:url(#SVGID_44_);}
	.st44{fill:url(#SVGID_45_);}
	.st45{fill:url(#SVGID_46_);}
	.st46{fill:url(#SVGID_47_);}
	.st47{fill:url(#SVGID_48_);}
	.st48{fill:url(#SVGID_49_);}
	.st49{fill:url(#SVGID_50_);}
	.st50{fill:url(#SVGID_51_);}
	.st51{fill:url(#SVGID_52_);}
	.st52{fill:url(#SVGID_53_);}
	.st53{fill:url(#SVGID_54_);}
	.st54{fill:url(#SVGID_55_);}
	.st55{fill:url(#SVGID_56_);}
	.st56{fill:url(#SVGID_57_);}
	.st57{fill:url(#SVGID_58_);}
	.st58{fill:url(#SVGID_59_);}
	.st59{fill:url(#SVGID_60_);}
	.st60{fill:url(#SVGID_61_);}
	.st61{fill:url(#SVGID_62_);}
	.st62{fill:#272727;}
	.st63{fill:#D7D7D7;}
	.st64{fill:url(#SVGID_63_);}
</style>
<linearGradient id="SVGID_1_" gradientUnits="userSpaceOnUse" x1="63.4736" y1="667.1647" x2="277.623" y2="667.1647" gradientTransform="matrix(1 0 0 -1 0 852.2297)">
	<stop  offset="0" style="stop-color:#B50B60"/>
	<stop  offset="1" style="stop-color:#C42466"/>
</linearGradient>
<path class="st0" d="M256,202.6l-28.5-11L212.9,177c-1-1-2.3-1.4-3.5-1.3v-12.4c6.9-7.3,11.8-16.5,13.7-27c0-0.1,0.2-0.2,0.3-0.3
	c1.3,0.1,2.6,0,3.8-0.3c6.6-1.4,11.5-7.5,11.5-14.7v-3.8c0-4.3-1.8-8.2-4.7-10.9c4.7-25.1,1-45.4-10.8-59
	c-11.3-13.1-29.6-19.3-52.8-18c-21.8,1.2-35.7,11.3-39.9,14.8c-5.8,0.7-23,4.9-23,28.8c0,13.5,2.2,24.7,3.8,30.8
	c-5.1,2.3-8.6,7.5-8.6,13.6v3.7c0,7.1,4.8,13.3,11.5,14.7c1.3,0.3,2.6,0.3,3.8,0.3c0.1,0,0.3,0.2,0.3,0.3c1.9,10.5,6.8,19.7,13.7,27
	v12.4c-1.3-0.1-2.6,0.4-3.5,1.3l-14.6,14.6l-28.5,11c-13.5,5.2-22.2,18.5-21.6,32.9l4,100.9c0.1,2.5,2.1,4.4,4.6,4.4
	c0.1,0,0.1,0,0.2,0c2.5-0.1,4.5-2.2,4.4-4.7l-4-100.9c-0.1-3,0.3-5.8,1.2-8.6l16.6,16.6c4.7,4.7,7.2,10.9,7.2,17.5v75.6
	c0,2.5,2,4.6,4.6,4.6s4.6-2,4.6-4.6v-75.6c0-9-3.5-17.5-9.9-23.9l-18.5-18.5c2.6-3.1,6-5.6,10-7.2l26.9-10.4l20.4,30.7
	c2.4,3.6,6.2,5.9,10.5,6.3c0.5,0,1,0.1,1.4,0.1c2.9,0,5.7-0.9,8.1-2.5l-4.4,100.8c-0.1,2.5,1.8,4.7,4.4,4.8c0.1,0,0.1,0,0.2,0
	c2.4,0,4.5-1.9,4.6-4.4l4.1-93.1h12.1l4.1,93.1c0.1,2.5,2.1,4.4,4.6,4.4c0.1,0,0.1,0,0.2,0c2.5-0.1,4.5-2.2,4.4-4.8L186,235.3
	c2.4,1.6,5.2,2.5,8.1,2.5c0.5,0,1,0,1.4-0.1c4.3-0.4,8.1-2.7,10.5-6.3l20.4-30.7l26.9,10.4c4,1.5,7.4,4,10,7.2l-18.5,18.5
	c-6.4,6.4-9.9,14.9-9.9,23.9v75.6c0,2.5,2,4.6,4.6,4.6s4.6-2,4.6-4.6v-75.6c0-6.6,2.6-12.8,7.2-17.5l16.6-16.6
	c0.9,2.7,1.3,5.6,1.2,8.6l-4,100.9c-0.1,2.5,1.9,4.6,4.4,4.7c0.1,0,0.1,0,0.2,0c2.4,0,4.5-1.9,4.6-4.4l4-100.9
	C278.2,221.1,269.5,207.8,256,202.6z M170.6,208.4l-29.6-25.9V171c8.5,5.7,18.7,9,29.6,9c10.9,0,21.1-3.3,29.6-9v11.5L170.6,208.4z
	 M117.3,126.9c-0.5,0-0.9,0-1.4-0.1c-2.4-0.5-4.2-2.9-4.2-5.7v-3.7c0-2.8,1.8-5.2,4.2-5.6c2-0.3,3.9,0.4,5.1,2c0.9,1.1,2,2,3.4,2.4
	c1.9,0.6,4.1,0.2,5.7-0.9c4-2.8,7.4-6.4,10.1-10.6c1.3-2.1,0.7-5-1.4-6.3c-2.1-1.3-5-0.7-6.3,1.4c-1.6,2.6-3.6,4.8-5.9,6.7
	c-1.8-1.6-3.9-2.8-6.2-3.3c-1.3-4.9-3.9-16.2-3.9-30.1c0-19.1,14.2-19.8,15.8-19.8c1.2,0,2.3-0.5,3.2-1.3
	c0.1-0.1,12.9-12.2,35.3-13.4c20.3-1.1,36,4.1,45.4,14.9c9.6,11,12.7,28,9.1,49.2c-1.6-0.1-3.5,0-5.4,0.4l-5.1-12.3
	c-0.9-2.1-3.2-3.2-5.4-2.7c-0.5,0.1-49.1,12.5-69.5-13c-1.6-2-4.5-2.3-6.4-0.7c-2,1.6-2.3,4.5-0.7,6.4c20.7,25.7,62.1,19.7,75.1,17
	l4,9.6c1.5,3.6,5.4,5.6,9.2,4.7c1.7-0.4,3.4-0.4,4.2-0.3c2.4,0.5,4.2,2.9,4.2,5.5v3.8c0,2.8-1.8,5.2-4.2,5.7
	c-0.5,0.1-0.9,0.1-1.4,0.1c-4.7-0.3-9,3.1-9.9,7.7c-3.9,21-22.1,36.2-43.5,36.2s-39.6-15.2-43.5-36.2
	C126.3,129.9,121.9,126.5,117.3,126.9z M147.2,228.7c-1.6-0.2-2.9-1-3.8-2.3l-20.6-30.9l9-9l32.2,28.1l-12.5,12.5
	C150.3,228.3,148.8,228.8,147.2,228.7z M165,234.3l0.4-8.1l5.3-5.3l5.3,5.3l0.4,8.1H165z M197.8,226.4c-0.9,1.3-2.3,2.1-3.8,2.3
	c-1.6,0.2-3.1-0.4-4.2-1.5l-12.5-12.5l32.2-28.1l9,9L197.8,226.4z"/>
</svg>
