<?xml version="1.0" encoding="utf-8"?>
<!-- Generator: Adobe Illustrator 22.1.0, SVG Export Plug-In . SVG Version: 6.00 Build 0)  -->
<svg version="1.1" id="Layer_1" xmlns="http://www.w3.org/2000/svg" xmlns:xlink="http://www.w3.org/1999/xlink" x="0px" y="0px"
	 viewBox="0 0 341.2 341.2" style="enable-background:new 0 0 341.2 341.2;" xml:space="preserve">
<style type="text/css">
	.st0{fill:url(#SVGID_1_);}
	.st1{fill:url(#SVGID_2_);}
	.st2{fill:url(#SVGID_3_);}
	.st3{fill:url(#SVGID_4_);}
	.st4{fill:url(#SVGID_5_);}
	.st5{fill:url(#SVGID_6_);}
	.st6{fill:url(#SVGID_7_);}
	.st7{fill:url(#SVGID_8_);}
	.st8{fill:url(#SVGID_9_);}
	.st9{fill:url(#SVGID_10_);}
	.st10{fill:url(#SVGID_11_);}
	.st11{fill:url(#SVGID_12_);}
	.st12{fill:url(#SVGID_13_);}
	.st13{fill:url(#SVGID_14_);}
	.st14{fill:url(#SVGID_15_);}
	.st15{fill:url(#SVGID_16_);}
	.st16{fill:url(#SVGID_17_);}
	.st17{fill:url(#SVGID_18_);}
	.st18{fill:url(#SVGID_19_);}
	.st19{fill:url(#SVGID_20_);}
	.st20{fill:url(#SVGID_21_);}
	.st21{fill:url(#SVGID_22_);}
	.st22{fill:url(#SVGID_23_);}
	.st23{fill:url(#SVGID_24_);}
	.st24{fill:url(#SVGID_25_);}
	.st25{fill:url(#SVGID_26_);}
	.st26{fill:url(#SVGID_27_);}
	.st27{fill:url(#SVGID_28_);}
	.st28{fill:url(#SVGID_29_);}
	.st29{fill:url(#SVGID_30_);}
	.st30{fill:url(#SVGID_31_);}
	.st31{fill:url(#SVGID_32_);}
	.st32{fill:url(#SVGID_33_);}
	.st33{fill:url(#SVGID_34_);}
	.st34{fill:url(#SVGID_35_);}
	.st35{fill:url(#SVGID_36_);}
	.st36{fill:url(#SVGID_37_);}
	.st37{fill:url(#SVGID_38_);}
	.st38{fill:url(#SVGID_39_);}
	.st39{fill:url(#SVGID_40_);}
	.st40{fill:url(#SVGID_41_);}
	.st41{fill:url(#SVGID_42_);}
	.st42{fill:url(#SVGID_43_);}
	.st43{fill:url(#SVGID_44_);}
	.st44{fill:url(#SVGID_45_);}
	.st45{fill:url(#SVGID_46_);}
	.st46{fill:url(#SVGID_47_);}
	.st47{fill:url(#SVGID_48_);}
	.st48{fill:url(#SVGID_49_);}
	.st49{fill:url(#SVGID_50_);}
	.st50{fill:url(#SVGID_51_);}
	.st51{fill:url(#SVGID_52_);}
	.st52{fill:url(#SVGID_53_);}
	.st53{fill:url(#SVGID_54_);}
	.st54{fill:url(#SVGID_55_);}
	.st55{fill:url(#SVGID_56_);}
	.st56{fill:url(#SVGID_57_);}
	.st57{fill:url(#SVGID_58_);}
	.st58{fill:url(#SVGID_59_);}
	.st59{fill:url(#SVGID_60_);}
	.st60{fill:url(#SVGID_61_);}
	.st61{fill:url(#SVGID_62_);}
	.st62{fill:#272727;}
	.st63{fill:#D7D7D7;}
	.st64{fill:url(#SVGID_63_);}
</style>
<g>
	
		<linearGradient id="SVGID_1_" gradientUnits="userSpaceOnUse" x1="0.25" y1="1495.48" x2="158.4502" y2="1495.48" gradientTransform="matrix(1 0 0 -1 0 1597.6301)">
		<stop  offset="0" style="stop-color:#B50B60"/>
		<stop  offset="1" style="stop-color:#C42466"/>
	</linearGradient>
	<path class="st0" d="M79.4,23.1c-43.6,0-79.1,35.5-79.1,79.1s35.5,79.1,79.1,79.1s79.1-35.5,79.1-79.1
		C158.4,58.6,122.9,23.1,79.4,23.1z M79.4,171.4c-38.1,0-69.1-31-69.1-69.1s31-69.1,69.1-69.1s69.1,31,69.1,69.1
		S117.4,171.4,79.4,171.4z"/>
	
		<linearGradient id="SVGID_2_" gradientUnits="userSpaceOnUse" x1="148.45" y1="1569.5801" x2="204.05" y2="1569.5801" gradientTransform="matrix(1 0 0 -1 0 1597.6301)">
		<stop  offset="0" style="stop-color:#B50B60"/>
		<stop  offset="1" style="stop-color:#C42466"/>
	</linearGradient>
	<path class="st1" d="M176.3,55.9c15.3,0,27.8-12.5,27.8-27.8S191.6,0.3,176.3,0.3s-27.8,12.5-27.8,27.8S160.9,55.9,176.3,55.9z
		 M176.3,10.3c9.8,0,17.8,8,17.8,17.8s-8,17.8-17.8,17.8s-17.8-8-17.8-17.8S166.4,10.3,176.3,10.3z"/>
	
		<linearGradient id="SVGID_3_" gradientUnits="userSpaceOnUse" x1="216.8501" y1="1569.5798" x2="249.6499" y2="1569.5798" gradientTransform="matrix(1 0 0 -1 0 1597.6301)">
		<stop  offset="0" style="stop-color:#B50B60"/>
		<stop  offset="1" style="stop-color:#C42466"/>
	</linearGradient>
	<path class="st2" d="M233.3,44.5c9,0,16.4-7.4,16.4-16.4s-7.4-16.4-16.4-16.4s-16.4,7.4-16.4,16.4S224.3,44.5,233.3,44.5z
		 M233.3,21.7c3.5,0,6.4,2.9,6.4,6.4s-2.9,6.4-6.4,6.4s-6.4-2.9-6.4-6.4S229.8,21.7,233.3,21.7z"/>
	
		<linearGradient id="SVGID_4_" gradientUnits="userSpaceOnUse" x1="23.0173" y1="1495.4015" x2="135.6174" y2="1495.4015" gradientTransform="matrix(1 0 0 -1 0 1597.6301)">
		<stop  offset="0" style="stop-color:#B50B60"/>
		<stop  offset="1" style="stop-color:#C42466"/>
	</linearGradient>
	<path class="st3" d="M112.9,78.1V56.6c0-1.7-0.8-3.2-2.2-4.1s-3.1-1.1-4.7-0.5L79.3,62.6L52.6,51.9c-1.5-0.6-3.3-0.4-4.7,0.5
		s-2.2,2.5-2.2,4.1v21.5c-3.6,4-6.4,8.6-8.3,13.6c-8.1,1-14.5,7.9-14.5,16.3c0,8.4,6.3,15.3,14.5,16.3c6.6,17,23.3,28.6,41.8,28.6
		s35.2-11.6,41.8-28.6c8.1-1,14.5-7.9,14.5-16.3c0-8.4-6.3-15.3-14.5-16.3C119.3,86.7,116.4,82.1,112.9,78.1z M102.9,64v8.1l-10.1-4
		L102.9,64z M55.9,64L66,68l-10.1,4V64z M125.7,107.9c0,3.5-2.9,6.4-6.4,6.4c-0.1,0-0.5,0-0.8-0.1h-0.2c-2.5-0.4-4.8,1.2-5.5,3.5
		c-4.3,14.8-18.1,25.1-33.5,25.1s-29.2-10.3-33.5-25.1c-0.7-2.4-3-3.9-5.5-3.5h-0.2c-0.3,0-0.6,0.1-0.8,0.1c-3.5,0-6.4-2.9-6.4-6.4
		s2.9-6.4,6.4-6.4c0.1,0,0.5,0,0.8,0.1h0.2c2.5,0.4,4.8-1.2,5.5-3.5c1.6-5.6,4.7-10.7,8.8-14.8l24.7-9.9l24.7,9.9
		c4.1,4.1,7.2,9.3,8.8,14.8c0.7,2.4,3,3.9,5.5,3.5h0.2c0.3,0,0.6-0.1,0.8-0.1C122.8,101.5,125.7,104.4,125.7,107.9z"/>
	
		<linearGradient id="SVGID_5_" gradientUnits="userSpaceOnUse" x1="159.8506" y1="1398.5299" x2="340.9512" y2="1398.5299" gradientTransform="matrix(1 0 0 -1 0 1597.6301)">
		<stop  offset="0" style="stop-color:#B50B60"/>
		<stop  offset="1" style="stop-color:#C42466"/>
	</linearGradient>
	<path class="st4" d="M325.2,224.9l-41.3-12.4v-13.8c12.8-9.5,21.4-24.2,22.6-40.9c6.7-2.1,11.6-8.3,11.6-15.7
		c0-4.8-2.1-9.3-5.7-12.4V96.5c0-9.2-4.6-17.8-12.2-22.9c-2.6-9.6-11.2-16.3-21.3-16.3h-45.6c-24.8,0-44.9,20.1-44.9,44.9v27.5
		c-3.6,3.1-5.7,7.6-5.7,12.4c0,7.4,4.9,13.6,11.6,15.7c1.3,16.8,9.9,31.5,22.6,40.9v13.8l-41.3,12.4c-9.4,2.8-15.7,11.3-15.7,21.2
		v55.7c0,2.8,2.2,5,5,5h0.7v29.2c0,2.8,2.2,5,5,5s5-2.2,5-5v-29.2h18.5v29.2c0,2.8,2.2,5,5,5s5-2.2,5-5v-62.7c0-0.8-0.2-1.5-0.5-2.2
		l-11.4-22.8c-1.2-2.5-4.2-3.5-6.7-2.2c-2.5,1.2-3.5,4.2-2.2,6.7l10.9,21.8v22.3H170v-50.7c0-5.4,3.5-10.1,8.6-11.6l17.1-5.1
		c6,25,28.6,43.2,54.8,43.2c13.5,0,26.5-4.8,36.7-13.6c9-7.8,15.3-18.2,18-29.6l17.1,5.1c5.2,1.5,8.6,6.2,8.6,11.6v50.7h-0.7l0,0
		h-23.5v-22.3l10.9-21.8c1.2-2.5,0.2-5.5-2.2-6.7c-2.5-1.2-5.5-0.2-6.7,2.2L297.3,271c-0.3,0.7-0.5,1.5-0.5,2.2v62.7
		c0,2.8,2.2,5,5,5s5-2.2,5-5v-29.2h18.5v29.2c0,2.8,2.2,5,5,5s5-2.2,5-5v-29.2h0.7l0,0c1.3,0,2.6-0.5,3.5-1.5
		c0.9-0.9,1.5-2.2,1.5-3.5V246C340.9,236.3,334.6,227.7,325.2,224.9z M204.1,153.5c0-2.8-2.2-5-5-5c-3.5,0-6.4-2.9-6.4-6.4
		c0-2.3,1.2-4.3,3.2-5.5c0.1-0.1,0.2-0.1,0.3-0.2c0.9-0.5,1.9-0.7,2.9-0.7h7.3c4.6,0,8.7-2.9,10.1-7.3l3.3-9.8
		c11.5-0.3,47-1.9,67-11.9c2.5-1.2,3.5-4.2,2.2-6.7c-1.2-2.5-4.2-3.5-6.7-2.2c-21.5,10.7-65.7,10.9-66.2,10.9
		c-2.1,0-4.1,1.4-4.7,3.4l-4.4,13.2c-0.1,0.3-0.4,0.5-0.7,0.5H199c-0.2,0-0.5,0-0.7,0v-23.5c0-19.3,15.7-34.9,34.9-34.9h45.6
		c6,0,11,4.3,11.9,10.2c0.2,1.5,1.2,2.8,2.5,3.6c5.6,3.2,9.1,9.1,9.1,15.4v35.8c0,1.8,0.9,3.4,2.5,4.3c2,1.2,3.2,3.2,3.2,5.5
		c0,3.5-2.9,6.4-6.4,6.4c-2.8,0-5,2.2-5,5c0,25.5-20.8,46.3-46.3,46.3C224.9,199.9,204.1,179.1,204.1,153.5z M250.4,209.8
		c8.4,0,16.4-1.8,23.5-5.2v11.6c0,13-10.6,23.5-23.5,23.5s-23.5-10.5-23.5-23.5c0,0,0,0,0-0.1v-11.6
		C234.1,208,241.9,209.8,250.4,209.8z M280.6,251.4c-8.4,7.2-19.1,11.2-30.2,11.2c-21.7,0-40.5-15.3-45.2-36.1l12.3-3.7
		c3,15.4,16.6,27,32.9,27s29.8-11.6,32.9-27l12.3,3.7C293.4,236.1,288.2,244.9,280.6,251.4z"/>
</g>
</svg>
