<svg id="Layer_1" data-name="Layer 1" xmlns="http://www.w3.org/2000/svg" viewBox="0 0 214.2 214.2"><defs><style>.cls-1{fill:#d50362;}</style></defs><title>icones 3</title><path class="cls-1" d="M162,101a7.93,7.93,0,0,0-.2-1,3.88,3.88,0,0,1-.16-.51,7.12,7.12,0,0,0-.36-.93c-.05-.16-.16-.31-.21-.47a10.47,10.47,0,0,0-5.43-5.12v-17a25.79,25.79,0,0,0-25.75-25.76H112.24a3.83,3.83,0,0,0,0,7.66h17.64A18.17,18.17,0,0,1,148,76V92H132.26V79.47a11.9,11.9,0,0,0-11.9-11.89H93.94A11.9,11.9,0,0,0,82,79.47V92H66.27V76A18.17,18.17,0,0,1,84.42,57.81h5.9a3.83,3.83,0,0,0,0-7.66h-5.9A25.79,25.79,0,0,0,58.67,75.91v17c-.06,0-.11,0-.16,0s-.31.16-.47.21a8.65,8.65,0,0,0-1.86,1.19,7.35,7.35,0,0,0-.93.83c-.31.31-.57.62-.83.93A12.55,12.55,0,0,0,53.23,98c0,.15-.15.31-.2.46a6,6,0,0,0-.36.94,3.88,3.88,0,0,0-.16.51,7.64,7.64,0,0,0-.21,1,8,8,0,0,0-.1,1.55v43.18A11.27,11.27,0,0,0,63,157.05h.41a11.21,11.21,0,0,0,11.17-11.22v-5.54h47.07a3.83,3.83,0,0,0,0-7.65H70.77a3.82,3.82,0,0,0-3.83,3.83v9.36a3.52,3.52,0,0,1-1.09,2.58,3.42,3.42,0,0,1-2.58,1,3.65,3.65,0,0,1-3.42-3.72V119.81h94.7v26a3.57,3.57,0,0,1-7.14,0v-9.36a3.83,3.83,0,1,0-7.65,0v9.36a11.22,11.22,0,0,0,22.44,0V102.49C162.1,102,162.1,101.45,162,101ZM89.69,79.47a4.27,4.27,0,0,1,4.25-4.24h26.42a4.26,4.26,0,0,1,4.24,4.24V92H89.69Zm64.8,32.74H59.8v-9.67a2.76,2.76,0,0,1,2.74-2.74h89.21a2.76,2.76,0,0,1,2.74,2.74Z"/><path class="cls-1" d="M5.22,101.21c.13-1.31.27-2.62.38-3.93A102.46,102.46,0,0,1,20.43,51.74a102.77,102.77,0,0,1,96.7-48.83,103.43,103.43,0,0,1,65.53,31.5,3.54,3.54,0,0,1-1.35,6,3.72,3.72,0,0,1-3.85-1.15c-1.83-1.77-3.63-3.58-5.53-5.27a95.23,95.23,0,0,0-43.44-22.14A95.06,95.06,0,0,0,57.25,24.27,94.85,94.85,0,0,0,19.39,69.43,92.51,92.51,0,0,0,12.91,95a95.62,95.62,0,0,0,44.48,91.54A96.05,96.05,0,0,0,93.9,200a92.45,92.45,0,0,0,23.32.7A93.94,93.94,0,0,0,169.41,179c16.77-14,27.41-31.8,32.25-53.09a90.83,90.83,0,0,0,2.19-24.43c-.17-3.92-.72-7.82-1.2-11.72a3.7,3.7,0,0,1,3.06-4.34,3.62,3.62,0,0,1,4,3.07,101.06,101.06,0,0,1,1.17,23.31,103,103,0,0,1-79.31,93.88,98.77,98.77,0,0,1-18.83,2.58,13.11,13.11,0,0,0-1.38.2h-4.91a12.59,12.59,0,0,0-1.49-.17,89.86,89.86,0,0,1-15.18-1.59,102.65,102.65,0,0,1-33-12.09A102.7,102.7,0,0,1,5.59,113.44c-.11-1.5-.25-3-.37-4.49Z"/></svg>