<svg id="Layer_1" data-name="Layer 1" xmlns="http://www.w3.org/2000/svg" viewBox="0 0 214.2 214.2"><defs><style>.cls-1{fill:#d50362;}</style></defs><title>icones 3</title><path class="cls-1" d="M108.37,155.45c2.21,0,4.5-1.53,4.5-3.2v-3.43c13.8-2.22,23.26-11.14,23.26-25.78,0-15.94-12.51-21.5-23.26-25.55V80.26c7.7.61,9.91,4.35,13.8,4.35,5.19,0,7.32-6.49,7.32-9.69,0-8.16-13.8-10.06-21.12-10.29v-3c0-1.67-2.21-3.2-4.5-3.2-2.59,0-4.5,1.53-4.5,3.2v3.28c-12.51,1.76-23.64,9-23.64,23.95,0,15.1,12.74,20.21,23.64,24.32v19.14c-8.77-1.52-12.73-8.54-17.69-8.54-4.5,0-8,5.87-8,9.92,0,7.55,11.59,14.87,25.78,15.32v3C103.87,153.92,105.78,155.45,108.37,155.45Zm3.28-38.82c4.27,2,7.17,4.5,7.17,8.39,0,4.27-3.21,6.49-7.17,7.48ZM97.47,87.35c0-2.82,2.21-5.57,7.54-6.63v14C100.52,92.84,97.47,90.71,97.47,87.35Z"/><path class="cls-1" d="M5.22,101.21c.13-1.31.27-2.62.38-3.93A102.46,102.46,0,0,1,20.43,51.74a102.77,102.77,0,0,1,96.7-48.83,103.43,103.43,0,0,1,65.53,31.5,3.54,3.54,0,0,1-1.35,6,3.72,3.72,0,0,1-3.85-1.15c-1.83-1.77-3.63-3.58-5.53-5.27a95.23,95.23,0,0,0-43.44-22.14A95.06,95.06,0,0,0,57.25,24.27,94.85,94.85,0,0,0,19.39,69.43,92.51,92.51,0,0,0,12.91,95a95.62,95.62,0,0,0,44.48,91.54A96.05,96.05,0,0,0,93.9,200a92.45,92.45,0,0,0,23.32.7A93.94,93.94,0,0,0,169.41,179c16.77-14,27.41-31.8,32.25-53.09a90.83,90.83,0,0,0,2.19-24.43c-.17-3.92-.72-7.82-1.2-11.72a3.7,3.7,0,0,1,3.06-4.34,3.62,3.62,0,0,1,4,3.07,101.06,101.06,0,0,1,1.17,23.31,103,103,0,0,1-79.31,93.88,98.77,98.77,0,0,1-18.83,2.58,13.11,13.11,0,0,0-1.38.2h-4.91a12.59,12.59,0,0,0-1.49-.17,89.86,89.86,0,0,1-15.18-1.59,102.65,102.65,0,0,1-33-12.09A102.7,102.7,0,0,1,5.59,113.44c-.11-1.5-.25-3-.37-4.49Z"/></svg>