<svg id="Layer_1" data-name="Layer 1" xmlns="http://www.w3.org/2000/svg" viewBox="0 0 214.2 214.2"><defs><style>.cls-1{fill:#d50362;}</style></defs><title>icones 3</title><path class="cls-1" d="M108.25,8.25c2.9,12.6,7.5,24.8,11.4,37.1,3.4,10.8,7.1,21.5,10.3,32.4,1.3,4.5,3.2,6.2,8.1,6.1,22.2-.3,44.4-.1,66.6-.1h5.2c.1.3.2.7.3,1L200,92.25c-16.2,11.8-32.3,23.7-48.6,35.4-3.2,2.3-3.9,4.5-2.6,8.2,7.2,21.5,14.1,43,21.1,64.6.5,1.5,1,3.1,1.6,5-2.3-.2-3.6-1.6-4.9-2.5-18.5-13.4-37.1-26.7-55.4-40.3-2.8-2.1-4.5-1.9-7.1.1-17.7,13.1-35.6,26-53.4,38.9-1.8,1.3-3.7,2.6-6.1,4.3,0-3.9,1.4-6.8,2.3-9.8,6.4-19.8,12.7-39.7,19.2-59.5,1.4-4.2.4-6.6-3-9.1-18.4-13.3-36.6-26.7-54.9-40.2-1-.7-2-1.6-4-3.2H10c22.8,0,45.7-.1,68.5.1,3.1,0,4.6-.7,5.6-3.9,7.6-24.1,15.4-48.1,23.2-72.1Z"/></svg>