<svg id="Layer_1" data-name="Layer 1" xmlns="http://www.w3.org/2000/svg" viewBox="0 0 214.2 214.2">
<defs>
<style>.cls-1{fill:#d50362;}</style>
</defs>
<title>icones 3</title>
<path class="cls-1" d="M133.44,141.67c1.82,0,3.7-1.26,3.7-2.64v-2.82c11.34-1.81,19.11-9.14,19.11-21.17,0-13.1-10.28-17.67-19.11-21V79.88c6.33.51,8.14,3.58,11.34,3.58,4.26,0,6-5.33,6-8,0-6.71-11.34-8.27-17.35-8.46V64.6c0-1.38-1.82-2.64-3.7-2.64-2.13,0-3.7,1.26-3.7,2.64v2.69c-10.27,1.44-19.42,7.39-19.42,19.68s10.46,16.6,19.42,20v15.73c-7.2-1.25-10.46-7-14.53-7-3.7,0-6.58,4.83-6.58,8.15,0,6.2,9.52,12.22,21.18,12.59v2.45C129.74,140.41,131.31,141.67,133.44,141.67Zm2.69-31.9c3.51,1.63,5.89,3.7,5.89,6.9,0,3.5-2.63,5.32-5.89,6.14ZM124.48,85.71c0-2.32,1.82-4.57,6.2-5.45V91.79C127,90.22,124.48,88.47,124.48,85.71Z"/>
<path class="cls-1" d="M4.57,100.07c.13-1.3.27-2.61.38-3.92A102.62,102.62,0,0,1,19.78,50.6a102.7,102.7,0,0,1,96.7-48.82A103.43,103.43,0,0,1,182,33.28a3.54,3.54,0,0,1-1.35,6,3.74,3.74,0,0,1-3.85-1.15c-1.83-1.77-3.63-3.59-5.53-5.28a95.28,95.28,0,0,0-43.44-22.14A95.17,95.17,0,0,0,56.6,23.14,94.7,94.7,0,0,0,18.75,68.29a92.32,92.32,0,0,0-6.48,25.58A95.56,95.56,0,0,0,56.74,185.4a96.3,96.3,0,0,0,36.51,13.5,93,93,0,0,0,23.33.7,94,94,0,0,0,52.18-21.73c16.77-14,27.41-31.8,32.26-53.08a91.34,91.34,0,0,0,2.19-24.44c-.18-3.91-.73-7.81-1.21-11.71a3.72,3.72,0,0,1,3.06-4.35,3.64,3.64,0,0,1,4,3.07,103.35,103.35,0,0,1-9.51,63,102.88,102.88,0,0,1-68.63,54.22,98,98,0,0,1-18.83,2.59,13.07,13.07,0,0,0-1.38.19h-4.91c-.5-.05-1-.16-1.49-.17a88.71,88.71,0,0,1-15.17-1.58,102.64,102.64,0,0,1-33-12.1A102.66,102.66,0,0,1,4.94,112.31c-.11-1.5-.24-3-.37-4.49Z"/>
<path class="cls-1" d="M77,141.67c1.81,0,3.69-1.26,3.69-2.64v-2.82C92,134.4,99.78,127.07,99.78,115c0-13.1-10.27-17.67-19.11-21V79.88c6.33.51,8.15,3.58,11.35,3.58,4.26,0,6-5.33,6-8,0-6.71-11.34-8.27-17.36-8.46V64.6C80.67,63.22,78.86,62,77,62c-2.13,0-3.7,1.26-3.7,2.64v2.69C63,68.73,53.86,74.68,53.86,87s10.46,16.6,19.42,20v15.73c-7.21-1.25-10.46-7-14.54-7-3.69,0-6.58,4.83-6.58,8.15,0,6.2,9.53,12.22,21.18,12.59v2.45C73.28,140.41,74.85,141.67,77,141.67Zm2.69-31.9c3.51,1.63,5.89,3.7,5.89,6.9,0,3.5-2.63,5.32-5.89,6.14ZM68,85.71c0-2.32,1.81-4.57,6.2-5.45V91.79C70.52,90.22,68,88.47,68,85.71Z"/></svg>
