<svg id="Layer_1" data-name="Layer 1" xmlns="http://www.w3.org/2000/svg" viewBox="0 0 214.2 214.2"><defs><style>.cls-1{fill:#d50362;}</style></defs><title>icones 3</title><path class="cls-1" d="M59.63,92.55a2.08,2.08,0,0,0,.5,1.34,6,6,0,0,1,.51,1c.08.59.33.75.84.84a1.24,1.24,0,0,1,1.09,1c.17.5.42.67,1,.5,1.09-.42,2.1-.84,3.19-1.26,0,.08-.08.34-.08.5a19.43,19.43,0,0,0-.17,2.19,1.17,1.17,0,0,0,1.17,1.26c1.35,0,2.69,0,4.12-.08a2.13,2.13,0,0,0,1.68-.76l.17-.17c.84.17,1.26-.42,1.76-.92a3,3,0,0,1,2-.93,14.58,14.58,0,0,0,1.68-.25,1.12,1.12,0,0,1,.17.25,1.25,1.25,0,0,1,.08,1.43c-.17.25-.08.67-.08,1.09v.84a1.83,1.83,0,0,0,0,1.18,6.34,6.34,0,0,0,2,2.44,2,2,0,0,0,1.52.42,1.58,1.58,0,0,1,.58.16c.26.17.42.42.68.51a1.78,1.78,0,0,1,.84.5,1.28,1.28,0,0,0,1.17.51c.34-.09.51,0,.67.42a1.13,1.13,0,0,0,1.52.84,1.15,1.15,0,0,1,.75.08l1.51.76c.34.16.51.33.51.67a8.52,8.52,0,0,1,.08,1.43c0,.67.09,1.34-.5,1.84a.5.5,0,0,0-.09.34,2.25,2.25,0,0,0,.59,1.43,4.83,4.83,0,0,0,2.52,1.09h1.26c.59,0,.76.25.59.84a1.34,1.34,0,0,1-.17.42,1.39,1.39,0,0,0,.93,2.18c.25.09.58.34.58.51,0,.84.42,1.76-.25,2.6a.47.47,0,0,0-.17.34c0,.25-.08.5,0,.67s.09.34,0,.5a2.84,2.84,0,0,0-.58,1.35c-.09,1.09-.17,2.18-.26,3.28a10.55,10.55,0,0,0,0,1.59.92.92,0,0,0,.76.93,14.44,14.44,0,0,0,1.85.16,2.61,2.61,0,0,1,2.6,3.11,3.83,3.83,0,0,0,0,1.35c0,.58.17.67.76.58a3.93,3.93,0,0,0,.84-.16c.67,0,1.17.33,1.09,1a9.09,9.09,0,0,1-.5,2.19c-.26.75-.34.75.33,1.26a2,2,0,0,1,.84,1.93c-.08.5-.17,1.09-.25,1.6a1.44,1.44,0,0,1-1.18,1.42,11.73,11.73,0,0,0-4.2,2.69,30.17,30.17,0,0,0-2.1,2.27c-.42.42-.42.67-.08,1.18.08.17.17.25.25.42.51.67,1.18,1.17.93,2.18-.09.42.16.59.58.42a.45.45,0,0,0,.42-.25c.34-.25.59-.08.84.17a16.52,16.52,0,0,0,2.78,2.69,2.14,2.14,0,0,1,.92,1.34c.08.5.34.5.76.5a6.15,6.15,0,0,0,1.09-.25c.25.51.59.51.92.09a1.07,1.07,0,0,0,.34-.59,5,5,0,0,1,1.34-2.35c.68-.68,1.26-1.35,1.94-2.1l.16.16a.91.91,0,0,0,1.52-.08c.25-.34.42-.76.67-1.18a4.57,4.57,0,0,1,1.43-1.68,4.62,4.62,0,0,0,1.09-1.17,5.19,5.19,0,0,0,.75-2.44c.09-.76.17-1.51.26-2.27,0-.25.08-.59.08-.84.17-.92.92-1.68.84-2.69l.5.26a.49.49,0,0,0,.68-.26,2.64,2.64,0,0,1,1.68-1.34,4,4,0,0,0,1.51-.84,2.9,2.9,0,0,1,1.85-.84,3.8,3.8,0,0,0,2.94-1.09,1.62,1.62,0,0,1,2.27-.34,2.7,2.7,0,0,0,1.84.25,7.87,7.87,0,0,0,3.36-1.42,5.84,5.84,0,0,0,1.94-2.1,2.34,2.34,0,0,1,1.34-1.35,2.19,2.19,0,0,0,.59-.33c.84-1,1.59-1.94,2.43-2.94.42-.51.17-1.18.26-1.69a1.59,1.59,0,0,1,.58-1.42,4.41,4.41,0,0,0,1.6-2.27,2.67,2.67,0,0,0,.17-1.18c0-.08.08-.08.17-.17a2.52,2.52,0,0,0,.16-.75c.17-.76.26-1.43.42-2.19.17-.92.26-1.76.42-2.68s.17-1.68.34-2.52a1.43,1.43,0,0,1,1-1.26,5.78,5.78,0,0,0,3.86-3.87,2,2,0,0,1,1.77-1.59,3.81,3.81,0,0,0,2.68-1.52,5.1,5.1,0,0,1,.51-.84c.5-.58,1.09-1.09,1.68-1.68a4.42,4.42,0,0,0,1.34-4.62,15,15,0,0,1-.33-1.85,10.73,10.73,0,0,0-.17-1.59,2.8,2.8,0,0,0-2.18-2.19,4.51,4.51,0,0,0-1-.16,2.57,2.57,0,0,1-1.85-1c-.84-1.09-1.6-2.19-2.44-3.28-.5-.67-.84-1.43-1.85-1.51-.08,0-.25-.17-.33-.34a2.17,2.17,0,0,0-1.85-1.17,6.67,6.67,0,0,0-1.34,0,5.17,5.17,0,0,1-3.2-.34,2.6,2.6,0,0,1-1.09-.75,2.1,2.1,0,0,0-1.34-.68,5.05,5.05,0,0,0-2.69.42c-.42.17-.92.34-1.43.51.25-.93.42-1.68.67-2.52.09-.42.09-.59-.33-.76a9.39,9.39,0,0,1-1.77-1c-.25-.16-.5-.42-.84-.67a10.38,10.38,0,0,0-3.52-1.26,4.53,4.53,0,0,0-3.87.84c-.59.42-1.18.92-1.68,1.34a2.53,2.53,0,0,0-.76-1.09,2.48,2.48,0,0,0,.68-.17,4.73,4.73,0,0,0,1.17-.58c.59-.51,1.26-1,1.77-1.52.33-.33.25-.58-.17-.84a8.67,8.67,0,0,0-3.78-.84,3.29,3.29,0,0,0-1.6.51c-.5.33-.92.67-1.43,1a2,2,0,0,1-1.42.33,4.18,4.18,0,0,1,.5-1.09,10.63,10.63,0,0,1,3.45-3,.93.93,0,0,0,.67-1,.84.84,0,0,1,.33-.84c.26-.17.42-.34.76-.59a2.65,2.65,0,0,0-.67-.34,6.21,6.21,0,0,1-1.26-.42,1,1,0,0,1-.59-.58c-.09-.51-.09-1-.17-1.52-.25-1.17-.59-2.26-.84-3.27a.81.81,0,0,0-1.18.17,10,10,0,0,1-.92.92c-.08.17-.25.42-.17.59.09.59.09.75-.5.84a1.4,1.4,0,0,0-1,.92.8.8,0,0,1-.67.59,6.17,6.17,0,0,1-2.77,0,2.18,2.18,0,0,1-1.77-.92.46.46,0,0,0-.42-.26l-1.76-.25a.87.87,0,0,0-.93.42,2.15,2.15,0,0,1-2.6,1,3.54,3.54,0,0,0-2.27.08,9.13,9.13,0,0,1-2.18.51,1.76,1.76,0,0,1-1.43-.34A4.4,4.4,0,0,1,97,63c.59-.84.51-.93-.25-1.52a1,1,0,0,1-.42-1.09c0-.17.17-.34.08-.5a.69.69,0,0,0-.33-.59c-.51-.25-.84-.09-1.26.42a3.36,3.36,0,0,1-1.93,1.6l-2,.25h-.5c-.51,0-.76.33-1,.75-.42.76-.59.76-1.26.17-.09,0-.09-.08-.17-.17-.59-.25-1.09-.58-1.68-.84-.17-.08-.42.09-.59.26a2.37,2.37,0,0,0-.25,1.68,2.35,2.35,0,0,0,1.43,1.76.82.82,0,0,1,0,1.51,5.3,5.3,0,0,0-.67.34c-1.43.84-2.86,1.59-4.2,2.43a1,1,0,0,1-.84.09,1.43,1.43,0,0,0-1.52.08.24.24,0,0,1-.33,0,2.61,2.61,0,0,1-1.35-1.76,1.51,1.51,0,0,0-1.26-1.43,3.14,3.14,0,0,0-1.51.17,4.56,4.56,0,0,1-2.1.17,4.77,4.77,0,0,0-1.6,0,.64.64,0,0,0-.58.67.71.71,0,0,0,.5.75,1.77,1.77,0,0,1,.67.34,1.07,1.07,0,0,1,.34.59c0,.17-.25.33-.42.42a2.73,2.73,0,0,1-.84.08c-1,0-1.43.67-1,1.51a6.26,6.26,0,0,0,1,1.6,2.07,2.07,0,0,1,.17,2.77,2,2,0,0,0-.51,1.85,1.08,1.08,0,0,1-.08.5,5.14,5.14,0,0,0-.51,2c0,.17-.08.34-.08.5-.08.34-.25.76-.34,1.1-.08.92-.42,1.26-1.34,1a2.67,2.67,0,0,0-2.27.25,3.14,3.14,0,0,1-.84.17c-.33,0-.67-.09-1-.09a.81.81,0,0,1-.84.67c-.08,0-.16.09-.25.17-1.34.93-1.76,2.35-2.18,3.78-.09.42-.09.76-.59,1a2.13,2.13,0,0,0-.76.76,1.44,1.44,0,0,0,.09,2c-.34.51-.09.84-.17,1.35Z"/><path class="cls-1" d="M5.22,101.21c.13-1.31.27-2.62.38-3.93A102.46,102.46,0,0,1,20.43,51.74a102.77,102.77,0,0,1,96.7-48.83,103.43,103.43,0,0,1,65.53,31.5,3.54,3.54,0,0,1-1.35,6,3.72,3.72,0,0,1-3.85-1.15c-1.83-1.77-3.63-3.58-5.53-5.27a95.23,95.23,0,0,0-43.44-22.14A95.06,95.06,0,0,0,57.25,24.27,94.85,94.85,0,0,0,19.39,69.43,92.51,92.51,0,0,0,12.91,95a95.62,95.62,0,0,0,44.48,91.54A96.05,96.05,0,0,0,93.9,200a92.45,92.45,0,0,0,23.32.7A93.94,93.94,0,0,0,169.41,179c16.77-14,27.41-31.8,32.25-53.09a90.83,90.83,0,0,0,2.19-24.43c-.17-3.92-.72-7.82-1.2-11.72a3.7,3.7,0,0,1,3.06-4.34,3.62,3.62,0,0,1,4,3.07,101.06,101.06,0,0,1,1.17,23.31,103,103,0,0,1-79.31,93.88,98.77,98.77,0,0,1-18.83,2.58,13.11,13.11,0,0,0-1.38.2h-4.91a12.59,12.59,0,0,0-1.49-.17,89.86,89.86,0,0,1-15.18-1.59,102.65,102.65,0,0,1-33-12.09A102.7,102.7,0,0,1,5.59,113.44c-.11-1.5-.25-3-.37-4.49Z"/></svg>