<svg id="Layer_1" data-name="Layer 1" xmlns="http://www.w3.org/2000/svg" viewBox="0 0 214.2 214.2"><defs><style>.cls-1{fill:#d50362;}</style></defs><title>icones 3</title><path class="cls-1" d="M146.05,110.24a3,3,0,0,0,0,6,5.16,5.16,0,0,1,5.16,5.15v25.81H138.76V86.33a13.4,13.4,0,0,0-11-13.17,8.93,8.93,0,0,0,.34-2.53,9.56,9.56,0,0,0-9.57-9.57h-2.09V59a9.58,9.58,0,1,0-19.15,0v2.09H95.22a9.56,9.56,0,0,0-9.58,9.57A8.93,8.93,0,0,0,86,73.16,13.44,13.44,0,0,0,75,86.33v60.9H62.56V121.42a5.15,5.15,0,0,1,5.15-5.15,3,3,0,0,0,0-6,11.27,11.27,0,0,0-11.23,11.23v28.82a3,3,0,0,0,3,3h94.73a3,3,0,0,0,3-3V121.47A11.19,11.19,0,0,0,146.05,110.24ZM95.22,67.18h5.1a3,3,0,0,0,3-3V59.06a3.51,3.51,0,0,1,6.86-1,4,4,0,0,1,.14,1v5.11a3,3,0,0,0,.15.92,3.08,3.08,0,0,0,2.91,2.14h5.16a3.5,3.5,0,0,1,3.35,2.48,3.6,3.6,0,0,1,.15,1,3.49,3.49,0,0,1-3.5,3.5h-5.16a3,3,0,0,0-3,3v5.15a3.5,3.5,0,0,1-6.85,1,3.6,3.6,0,0,1-.15-1V77.24a3.26,3.26,0,0,0-.14-.92,3.1,3.1,0,0,0-2.92-2.14H95.17a3.5,3.5,0,0,1-3.36-2.48,4,4,0,0,1-.14-1A3.66,3.66,0,0,1,95.22,67.18Zm23,80.1H95.56V132.74a3.51,3.51,0,0,1,3.5-3.49h15.69a3.51,3.51,0,0,1,3.5,3.49v14.54Zm14.48,0h-8.41V132.74a9.54,9.54,0,0,0-9.53-9.52H99.06a9.54,9.54,0,0,0-9.53,9.52v14.54H81.12V86.38a7.29,7.29,0,0,1,6.81-7.29H90.7a9.63,9.63,0,0,0,4.57,1.16h2.08v2.09a9.58,9.58,0,1,0,19.15,0V80.25h2.09a9.63,9.63,0,0,0,4.57-1.16h2.77a7.35,7.35,0,0,1,6.76,7.29v60.9Z"/><path class="cls-1" d="M123.16,109H90.6a3,3,0,1,0,0,6h32.56a3,3,0,0,0,3-3A3,3,0,0,0,123.16,109Z"/><path class="cls-1" d="M123.16,96.29H90.6a3,3,0,0,0,0,6h32.56a3,3,0,0,0,3-3A3,3,0,0,0,123.16,96.29Z"/><path class="cls-1" d="M5.22,101.21c.13-1.31.27-2.62.38-3.93A102.46,102.46,0,0,1,20.43,51.74a102.77,102.77,0,0,1,96.7-48.83,103.43,103.43,0,0,1,65.53,31.5,3.54,3.54,0,0,1-1.35,6,3.72,3.72,0,0,1-3.85-1.15c-1.83-1.77-3.63-3.58-5.53-5.27a95.23,95.23,0,0,0-43.44-22.14A95.06,95.06,0,0,0,57.25,24.27,94.85,94.85,0,0,0,19.39,69.43,92.51,92.51,0,0,0,12.91,95a95.62,95.62,0,0,0,44.48,91.54A96.05,96.05,0,0,0,93.9,200a92.45,92.45,0,0,0,23.32.7A93.94,93.94,0,0,0,169.41,179c16.77-14,27.41-31.8,32.25-53.09a90.83,90.83,0,0,0,2.19-24.43c-.17-3.92-.72-7.82-1.2-11.72a3.7,3.7,0,0,1,3.06-4.34,3.62,3.62,0,0,1,4,3.07,101.06,101.06,0,0,1,1.17,23.31,103,103,0,0,1-79.31,93.88,98.77,98.77,0,0,1-18.83,2.58,13.11,13.11,0,0,0-1.38.2h-4.91a12.59,12.59,0,0,0-1.49-.17,89.86,89.86,0,0,1-15.18-1.59,102.65,102.65,0,0,1-33-12.09A102.7,102.7,0,0,1,5.59,113.44c-.11-1.5-.25-3-.37-4.49Z"/></svg>