<svg id="Layer_1" data-name="Layer 1" xmlns="http://www.w3.org/2000/svg" viewBox="0 0 214.2 214.2"><defs><style>.cls-1{fill:#d50362;}</style></defs><title>icones 3</title><path class="cls-1" d="M89.18,106.07h35.91a3.3,3.3,0,0,0,3.3-3.3V97.53a21.18,21.18,0,0,0-10.77-18.47,16.87,16.87,0,1,0-21,0A21.18,21.18,0,0,0,85.88,97.53v5.24A3.34,3.34,0,0,0,89.18,106.07Zm18-50.43A10.26,10.26,0,1,1,96.88,65.9,10.29,10.29,0,0,1,107.14,55.64ZM92.49,97.58a14.65,14.65,0,0,1,29.29,0v1.94H92.49Z"/><path class="cls-1" d="M167.54,142.83a3.29,3.29,0,0,0-6.38,1.6,11.7,11.7,0,0,1,.34,2.85v1.08H137.85v-1.08a11.85,11.85,0,0,1,11.86-11.86h0a14.73,14.73,0,1,0-9.81-3.76,18.36,18.36,0,0,0-8.6,15.62v4.39a3.3,3.3,0,0,0,3.3,3.3h30.27a3.3,3.3,0,0,0,3.3-3.3v-4.39A28.38,28.38,0,0,0,167.54,142.83Zm-17.89-30.26a8.15,8.15,0,1,1-8.15,8.15A8.15,8.15,0,0,1,149.65,112.57Z"/><path class="cls-1" d="M78.58,140.44a3.28,3.28,0,0,0-2.39,4,11.7,11.7,0,0,1,.34,2.85v1.08H52.88v-1.08a11.85,11.85,0,0,1,11.86-11.86h0a14.73,14.73,0,1,0-9.81-3.76,18.36,18.36,0,0,0-8.6,15.62v4.39a3.3,3.3,0,0,0,3.3,3.3H79.9a3.3,3.3,0,0,0,3.3-3.3v-4.39a19.53,19.53,0,0,0-.51-4.45A3.46,3.46,0,0,0,78.58,140.44Zm-13.9-27.87a8.15,8.15,0,1,1-8.15,8.15A8.15,8.15,0,0,1,64.68,112.57Z"/><path class="cls-1" d="M132.67,130.75a3.31,3.31,0,0,0-3.31-3.3H110.44V113.94a3.31,3.31,0,1,0-6.61,0v13.51H84.91a3.31,3.31,0,0,0,0,6.61h44.45A3.31,3.31,0,0,0,132.67,130.75Z"/><path class="cls-1" d="M5.22,101.21c.13-1.31.27-2.62.38-3.93A102.46,102.46,0,0,1,20.43,51.74a102.77,102.77,0,0,1,96.7-48.83,103.43,103.43,0,0,1,65.53,31.5,3.54,3.54,0,0,1-1.35,6,3.72,3.72,0,0,1-3.85-1.15c-1.83-1.77-3.63-3.58-5.53-5.27a95.23,95.23,0,0,0-43.44-22.14A95.06,95.06,0,0,0,57.25,24.27,94.85,94.85,0,0,0,19.39,69.43,92.51,92.51,0,0,0,12.91,95a95.62,95.62,0,0,0,44.48,91.54A96.05,96.05,0,0,0,93.9,200a92.45,92.45,0,0,0,23.32.7A93.94,93.94,0,0,0,169.41,179c16.77-14,27.41-31.8,32.25-53.09a90.83,90.83,0,0,0,2.19-24.43c-.17-3.92-.72-7.82-1.2-11.72a3.7,3.7,0,0,1,3.06-4.34,3.62,3.62,0,0,1,4,3.07,101.06,101.06,0,0,1,1.17,23.31,103,103,0,0,1-79.31,93.88,98.77,98.77,0,0,1-18.83,2.58,13.11,13.11,0,0,0-1.38.2h-4.91a12.59,12.59,0,0,0-1.49-.17,89.86,89.86,0,0,1-15.18-1.59,102.65,102.65,0,0,1-33-12.09A102.7,102.7,0,0,1,5.59,113.44c-.11-1.5-.25-3-.37-4.49Z"/></svg>