<svg id="Layer_1" data-name="Layer 1" xmlns="http://www.w3.org/2000/svg" viewBox="0 0 214.2 214.2"><defs><style>.cls-1{fill:#d50362;}</style></defs><title>icones 3</title><path class="cls-1" d="M153.55,94.65h-33.5V61.15a11.1,11.1,0,1,0-22.2,0v33.5H64.35a11.07,11.07,0,0,0-11.1,11.1h0a11.07,11.07,0,0,0,11.1,11.1h33.5v33.5a11.1,11.1,0,1,0,22.2,0v-33.5h33.5a11.07,11.07,0,0,0,11.1-11.1h0A11,11,0,0,0,153.55,94.65Z"/><path class="cls-1" d="M4.67,101.21c.13-1.31.27-2.62.38-3.93A102.46,102.46,0,0,1,19.88,51.74a102.77,102.77,0,0,1,96.7-48.83,103.43,103.43,0,0,1,65.53,31.5,3.54,3.54,0,0,1-1.35,6,3.72,3.72,0,0,1-3.85-1.15c-1.83-1.77-3.63-3.58-5.53-5.27a95.23,95.23,0,0,0-43.44-22.14A95.06,95.06,0,0,0,56.7,24.27,94.85,94.85,0,0,0,18.84,69.43,92.51,92.51,0,0,0,12.36,95a95.62,95.62,0,0,0,44.48,91.54A96.05,96.05,0,0,0,93.35,200a92.45,92.45,0,0,0,23.32.7A93.94,93.94,0,0,0,168.86,179c16.77-14,27.41-31.8,32.25-53.09a90.42,90.42,0,0,0,2.19-24.43c-.17-3.92-.72-7.82-1.2-11.72a3.7,3.7,0,0,1,3.06-4.34,3.62,3.62,0,0,1,4,3.07,101.06,101.06,0,0,1,1.17,23.31A103,103,0,0,1,131,205.69a98.77,98.77,0,0,1-18.83,2.58,13.11,13.11,0,0,0-1.38.2h-4.91a12.59,12.59,0,0,0-1.49-.17,89.86,89.86,0,0,1-15.18-1.59,102.65,102.65,0,0,1-33-12.09A102.7,102.7,0,0,1,5,113.44c-.11-1.5-.25-3-.37-4.49Z"/></svg>